HIERARCHY
ROOT Hips
{
	OFFSET -0.001795 -0.223333 0.028219
	CHANNELS 6 Xposition Yposition Zposition Zrotation Yrotation Xrotation 
	JOINT LeftUpLeg
	{
		OFFSET 0.069520 -0.091406 -0.006815
		CHANNELS 3 Zrotation Yrotation Xrotation
		JOINT LeftLeg
		{
			OFFSET 0.034277 -0.375199 -0.004496
			CHANNELS 3 Zrotation Yrotation Xrotation
			JOINT LeftFoot
			{
				OFFSET -0.013596 -0.397961 -0.043693
				CHANNELS 3 Zrotation Yrotation Xrotation
				JOINT LeftToe
				{
					OFFSET 0.026358 -0.055791 0.119288
					CHANNELS 3 Zrotation Yrotation Xrotation
					End Site
					{
						OFFSET 0.000000 0.000000 0.000000
					}
				}
			}
		}
	}
	JOINT RightUpLeg
	{
		OFFSET -0.067670 -0.090522 -0.004320
		CHANNELS 3 Zrotation Yrotation Xrotation
		JOINT RightLeg
		{
			OFFSET -0.038290 -0.382569 -0.008850
			CHANNELS 3 Zrotation Yrotation Xrotation
			JOINT RightFoot
			{
				OFFSET 0.015774 -0.398415 -0.042312
				CHANNELS 3 Zrotation Yrotation Xrotation
				JOINT RightToe
				{
					OFFSET -0.025372 -0.048144 0.123348
					CHANNELS 3 Zrotation Yrotation Xrotation
					End Site
					{
						OFFSET 0.000000 0.000000 0.000000
					}
				}
			}
		}
	}
	JOINT Spine
	{
		OFFSET -0.002533 0.108963 -0.026696
		CHANNELS 3 Zrotation Yrotation Xrotation
		JOINT Spine1
		{
			OFFSET 0.005487 0.135180 0.001092
			CHANNELS 3 Zrotation Yrotation Xrotation
			JOINT Spine2
			{
				OFFSET 0.001457 0.052922 0.025425
				CHANNELS 3 Zrotation Yrotation Xrotation
				JOINT Neck
				{
					OFFSET -0.002778 0.213870 -0.042857
					CHANNELS 3 Zrotation Yrotation Xrotation
					JOINT Head
					{
						OFFSET 0.005152 0.064970 0.051349
						CHANNELS 3 Zrotation Yrotation Xrotation
						End Site
						{
							OFFSET 0.000000 0.000000 0.000000
						}
					}
				}
				JOINT LeftShoulder
				{
					OFFSET 0.078845 0.121749 -0.034090
					CHANNELS 3 Zrotation Yrotation Xrotation
					JOINT LeftArm
					{
						OFFSET 0.090977 0.030469 -0.008868
						CHANNELS 3 Zrotation Yrotation Xrotation
						JOINT LeftForeArm
						{
							OFFSET 0.259612 -0.012772 -0.027456
							CHANNELS 3 Zrotation Yrotation Xrotation
							JOINT LeftHand
							{
								OFFSET 0.249234 0.008986 -0.001171
								CHANNELS 3 Zrotation Yrotation Xrotation
								End Site
								{
									OFFSET 0.000000 0.000000 0.000000
								}
							}
						}
					}
				}
				JOINT RightShoulder
				{
					OFFSET -0.081759 0.118833 -0.038615
					CHANNELS 3 Zrotation Yrotation Xrotation
					JOINT RightArm
					{
						OFFSET -0.096012 0.032551 -0.009143
						CHANNELS 3 Zrotation Yrotation Xrotation
						JOINT RightForeArm
						{
							OFFSET -0.253742 -0.013329 -0.021401
							CHANNELS 3 Zrotation Yrotation Xrotation
							JOINT RightHand
							{
								OFFSET -0.255298 0.007772 -0.005559
								CHANNELS 3 Zrotation Yrotation Xrotation
								End Site
								{
									OFFSET 0.000000 0.000000 0.000000
								}
							}
						}
					}
				}
			}
		}
	}
}
MOTION
Frames: 16
Frame Time: 0.050000
0.027297 0.933479 0.008642 1.397571 51.347359 -0.517822 9.936363 -1.723924 3.519566 -5.828155 -0.266563 -0.954501 5.672854 14.114012 10.767721 0.000000 0.000000 0.000000 -9.537182 -1.678015 -0.017046 5.087065 -1.393349 0.347356 -10.394754 -16.157485 21.385108 0.000000 0.000000 0.000000 5.648839 -2.123101 13.967543 -6.796142 2.181614 -27.234668 -2.814394 7.202913 26.238964 11.566798 2.987012 -40.385597 0.000000 0.000000 0.000000 -21.367658 -11.374127 -9.005072 -38.801025 6.371996 -4.318167 1.328362 -27.617491 -1.611000 0.000000 0.000000 0.000000 37.172974 -11.007457 7.407575 42.678903 17.823593 -5.167443 -6.970344 22.960477 0.632681 0.000000 0.000000 0.000000 
0.027909 0.933241 0.008374 1.390507 51.425700 -0.348758 9.870770 -1.734109 3.708806 -5.751804 -0.290354 -1.613137 5.647738 14.074441 10.770690 0.000000 0.000000 0.000000 -9.585626 -1.689892 0.038933 5.137570 -1.385805 -0.028587 -10.437830 -16.208086 21.429711 0.000000 0.000000 0.000000 5.600209 -2.116018 13.962628 -6.795036 2.159493 -27.361220 -2.734670 7.724300 26.291129 11.579862 3.070105 -40.489973 0.000000 0.000000 0.000000 -21.532134 -11.745156 -9.154703 -38.464626 6.429123 -4.169308 1.865847 -27.410799 -1.753682 0.000000 0.000000 0.000000 37.321094 -11.142946 7.618420 42.627702 18.167519 -5.157279 -7.087605 23.296190 0.641450 0.000000 0.000000 0.000000 
0.028129 0.933105 0.008063 1.556585 51.587391 -0.093638 9.727995 -1.728822 3.898270 -5.704988 -0.320092 -2.252416 5.535737 13.965751 10.823398 0.000000 0.000000 0.000000 -9.779798 -1.733786 -0.062814 5.252016 -1.420888 -0.024026 -10.499525 -16.286824 21.433087 0.000000 0.000000 0.000000 5.543780 -2.109919 13.956009 -6.887742 2.183593 -27.221273 -2.678692 7.877689 26.136258 11.508920 3.134415 -40.537031 0.000000 0.000000 0.000000 -21.645884 -11.633849 -9.378557 -38.276831 6.525730 -4.113923 2.335225 -27.333758 -1.875574 0.000000 0.000000 0.000000 37.287979 -11.042267 7.802328 42.645176 18.328196 -5.106314 -7.216832 23.968401 0.657605 0.000000 0.000000 0.000000 
0.027917 0.932900 0.007673 1.504418 52.014841 -0.021050 9.800610 -1.776300 4.007897 -5.699507 -0.363251 -2.879410 5.327907 13.713020 10.809817 0.000000 0.000000 0.000000 -9.678833 -1.731067 -0.239627 5.167209 -1.423677 0.188868 -10.752760 -16.612780 21.518591 0.000000 0.000000 0.000000 5.593714 -2.118473 13.914960 -6.784916 2.184748 -27.116155 -2.744640 8.033059 26.156113 11.504852 3.204498 -40.633433 0.000000 0.000000 0.000000 -21.836044 -11.889569 -9.567092 -38.145013 6.675379 -4.035207 2.831986 -27.111225 -2.001727 0.000000 0.000000 0.000000 37.334454 -11.104541 7.981619 42.750211 18.700022 -5.034786 -7.227525 24.342498 0.684298 0.000000 0.000000 0.000000 
0.027104 0.932677 0.007218 1.625541 52.266017 -0.071011 9.684385 -1.761350 4.052229 -5.567743 -0.359047 -2.873952 5.192466 13.508311 10.706445 0.000000 0.000000 0.000000 -9.636072 -1.738486 -0.206616 4.977321 -1.391912 0.403688 -10.895639 -16.849020 21.450983 0.000000 0.000000 0.000000 5.494923 -2.212072 14.397176 -6.798108 2.159851 -27.308108 -2.691751 8.019601 26.190810 11.365646 3.275535 -40.654011 0.000000 0.000000 0.000000 -22.023070 -12.005418 -9.659919 -37.951627 6.717725 -3.963728 3.201411 -26.869030 -2.062876 0.000000 0.000000 0.000000 37.572492 -10.937725 8.284987 42.549451 19.083779 -5.013214 -7.359482 24.926367 0.684126 0.000000 0.000000 0.000000 
0.025823 0.932525 0.006679 1.601656 52.581429 -0.151131 9.655513 -1.755900 3.963429 -5.377184 -0.351436 -2.870639 5.025733 13.276541 10.613987 0.000000 0.000000 0.000000 -9.552625 -1.736267 -0.330290 4.928788 -1.407395 0.710886 -11.069475 -17.094149 21.465419 0.000000 0.000000 0.000000 5.375782 -2.310782 14.886194 -6.616254 2.140020 -27.318888 -2.737170 8.204791 26.162700 11.409458 3.313296 -41.151376 0.000000 0.000000 0.000000 -22.024839 -12.151358 -9.728450 -37.818631 6.593672 -3.851197 3.444959 -26.789299 -2.133984 0.000000 0.000000 0.000000 37.554079 -11.110986 8.255016 42.634072 19.404689 -4.919861 -7.089046 25.233737 0.755932 0.000000 0.000000 0.000000 
0.024181 0.932479 0.006042 1.588298 52.850991 -0.188482 9.590095 -1.750443 3.942846 -5.128009 -0.351255 -3.078857 4.850816 13.081856 10.623874 0.000000 0.000000 0.000000 -9.445419 -1.728169 -0.349488 4.850752 -1.392303 0.697196 -11.232209 -17.299347 21.550298 0.000000 0.000000 0.000000 5.368870 -2.380426 15.160341 -6.664857 2.144437 -27.321141 -2.633694 8.192438 26.355699 11.403011 3.354702 -41.564875 0.000000 0.000000 0.000000 -22.275137 -12.246338 -9.899672 -37.632608 6.416176 -3.706451 3.640077 -26.817180 -2.184294 0.000000 0.000000 0.000000 37.550072 -10.921243 8.522339 42.754661 19.765020 -4.842969 -7.476212 25.345986 0.700423 0.000000 0.000000 0.000000 
0.022474 0.932567 0.005436 1.633736 52.982579 -0.191405 9.547636 -1.747129 3.948067 -5.012315 -0.356409 -3.266193 4.725093 12.989620 10.719904 0.000000 0.000000 0.000000 -9.370557 -1.720100 -0.239452 4.759012 -1.350781 0.413644 -11.319597 -17.399127 21.655185 0.000000 0.000000 0.000000 5.282201 -2.459717 15.532125 -6.575861 2.134864 -27.295107 -2.632831 8.217259 26.465407 11.324963 3.415382 -42.382485 0.000000 0.000000 0.000000 -22.532709 -12.547295 -9.946661 -37.536519 6.403385 -3.615607 3.572736 -27.156298 -2.198101 0.000000 0.000000 0.000000 37.423904 -10.934343 8.504391 42.907750 19.908422 -4.770280 -7.288136 25.366147 0.734782 0.000000 0.000000 0.000000 
0.020809 0.932702 0.005048 1.610555 53.121158 -0.153720 9.462591 -1.743817 4.017317 -4.719536 -0.364684 -3.729844 4.577147 12.902507 10.881730 0.000000 0.000000 0.000000 -9.309812 -1.712833 -0.283091 4.793374 -1.353615 0.244539 -11.406714 -17.474607 21.782180 0.000000 0.000000 0.000000 5.235266 -2.485714 15.657791 -6.532114 2.151045 -27.187227 -2.640110 8.172856 26.407100 11.396737 3.397843 -42.583869 0.000000 0.000000 0.000000 -22.611699 -12.551031 -9.995075 -37.634909 6.321166 -3.594725 3.487418 -27.510876 -2.217634 0.000000 0.000000 0.000000 37.422245 -10.958195 8.479779 42.724346 19.996656 -4.742018 -7.233512 25.149012 0.720418 0.000000 0.000000 0.000000 
0.019253 0.932659 0.005040 1.579979 53.397751 -0.318310 9.534929 -1.805128 4.344294 -4.656385 -0.399373 -4.297197 4.382754 12.745691 11.026835 0.000000 0.000000 0.000000 -9.243686 -1.719336 -0.030243 4.850785 -1.361913 0.023773 -11.525258 -17.656660 21.838105 0.000000 0.000000 0.000000 5.242535 -2.553040 15.904415 -6.426879 2.133751 -27.245522 -2.667906 7.902793 26.573083 11.260285 3.442776 -43.237156 0.000000 0.000000 0.000000 -22.575030 -12.518036 -9.942082 -37.740086 6.350412 -3.648752 3.132333 -28.123513 -2.190074 0.000000 0.000000 0.000000 37.106339 -10.654397 8.569699 42.562082 19.888942 -4.704768 -7.463618 24.537645 0.617752 0.000000 0.000000 0.000000 
0.017713 0.932543 0.005407 1.632495 53.623592 -0.400338 9.673809 -1.868974 4.567815 -4.784636 -0.440229 -4.672521 4.227226 12.633274 11.163476 0.000000 0.000000 0.000000 -9.269528 -1.746341 0.298240 5.003406 -1.386074 -0.352145 -11.593036 -17.799306 21.820212 0.000000 0.000000 0.000000 5.222257 -2.634360 16.236167 -6.495458 2.160831 -27.133790 -2.806271 7.607071 26.422348 11.348064 3.375302 -43.472229 0.000000 0.000000 0.000000 -22.391043 -12.549767 -9.710462 -37.802938 6.498003 -3.755758 3.233109 -28.525468 -2.253663 0.000000 0.000000 0.000000 37.076804 -10.562519 8.539309 42.312718 19.639436 -4.774269 -7.839202 24.126041 0.531561 0.000000 0.000000 0.000000 
0.016086 0.932360 0.006145 1.540835 54.113749 -0.688100 9.793922 -1.941938 4.799161 -4.629137 -0.456874 -4.968560 3.946119 12.321139 11.187137 0.000000 0.000000 0.000000 -9.178268 -1.768251 0.762294 5.175578 -1.426165 -0.676471 -11.783729 -18.122266 21.855231 0.000000 0.000000 0.000000 5.254917 -2.754693 16.639800 -6.562514 2.168620 -27.136397 -2.709619 7.202804 26.427268 11.297853 3.372693 -44.358010 0.000000 0.000000 0.000000 -22.329515 -12.451610 -9.653918 -37.809897 6.592084 -3.820378 3.061853 -29.022103 -2.250022 0.000000 0.000000 0.000000 36.986966 -10.400091 8.580220 42.258505 19.377148 -4.839494 -8.493904 23.495194 0.405297 0.000000 0.000000 0.000000 
0.014349 0.932359 0.007303 1.443915 54.572822 -0.781834 10.033222 -2.009497 4.733220 -4.635906 -0.477480 -5.105983 3.669364 12.059492 11.276990 0.000000 0.000000 0.000000 -9.030409 -1.763139 0.858805 5.309909 -1.471169 -0.731523 -12.009679 -18.456374 21.919190 0.000000 0.000000 0.000000 5.245189 -2.795734 16.767346 -6.449521 2.178857 -26.984836 -2.782188 7.015057 26.369017 11.422978 3.334726 -44.333561 0.000000 0.000000 0.000000 -22.033559 -12.371014 -9.546905 -37.694681 6.792613 -3.911207 3.012198 -29.111498 -2.254210 0.000000 0.000000 0.000000 37.123121 -10.363447 8.699570 42.069849 19.067992 -4.985638 -8.813946 22.829670 0.324932 0.000000 0.000000 0.000000 
0.012652 0.932611 0.008896 1.358868 54.997774 -0.975858 10.136216 -2.052243 4.771962 -4.390460 -0.466573 -5.166003 3.358016 11.779477 11.403996 0.000000 0.000000 0.000000 -8.842041 -1.753651 1.108386 5.385945 -1.496166 -0.832516 -12.207051 -18.751938 22.030127 0.000000 0.000000 0.000000 5.237604 -2.861182 16.989947 -6.469932 2.198529 -26.881950 -2.757855 6.925913 26.008512 11.458699 3.324410 -44.304203 0.000000 0.000000 0.000000 -21.517378 -11.943117 -9.474660 -37.676550 7.050427 -4.075859 2.580154 -29.510028 -2.201539 0.000000 0.000000 0.000000 36.889564 -10.475296 8.519963 42.654104 18.544400 -5.050794 -8.963026 22.295308 0.315302 0.000000 0.000000 0.000000 
0.011217 0.932842 0.010684 1.249088 55.495283 -1.105668 10.372100 -2.156005 4.959954 -4.347540 -0.511346 -5.662250 3.019357 11.531337 11.657365 0.000000 0.000000 0.000000 -8.416196 -1.694941 1.237207 5.089461 -1.427009 -0.838176 -12.539771 -19.219854 22.183557 0.000000 0.000000 0.000000 5.256665 -2.868077 16.969166 -6.445613 2.204920 -26.835822 -2.593506 6.927304 25.808891 11.511537 3.341472 -43.935900 0.000000 0.000000 0.000000 -21.028545 -11.641300 -9.439661 -37.743702 7.503081 -4.308068 2.039964 -29.624958 -2.095040 0.000000 0.000000 0.000000 37.000664 -10.617926 8.542272 42.967644 18.425452 -5.102644 -9.125486 21.786235 0.292575 0.000000 0.000000 0.000000 
0.010120 0.932973 0.012300 1.232168 56.068005 -1.170699 10.494143 -2.219518 5.021841 -4.233265 -0.535037 -5.924247 2.654921 11.196385 11.789524 0.000000 0.000000 0.000000 -8.180065 -1.680609 1.382707 4.981701 -1.414874 -0.798468 -12.858739 -19.678628 22.311364 0.000000 0.000000 0.000000 5.258863 -2.855828 16.882701 -6.461296 2.200354 -26.858938 -2.567983 6.836907 25.630805 11.405539 3.415694 -43.497960 0.000000 0.000000 0.000000 -20.536762 -11.441221 -9.337516 -37.804624 7.821026 -4.500337 1.413015 -30.050776 -1.999378 0.000000 0.000000 0.000000 36.864685 -10.830188 8.405027 43.216934 18.215627 -5.126180 -9.189020 21.544117 0.294902 0.000000 0.000000 0.000000 
